<?xml version="1.0" encoding="utf-8"?>
<!-- Generator: Adobe Illustrator 28.2.0, SVG Export Plug-In . SVG Version: 6.00 Build 0)  -->
<svg version="1.1" id="svg1" xmlns="http://www.w3.org/2000/svg" xmlns:xlink="http://www.w3.org/1999/xlink" x="0px" y="0px"
	 viewBox="0 0 512 512" style="enable-background:new 0 0 512 512;" xml:space="preserve">
<style type="text/css">
	.st0{fill:#8C52FF;}
	.st1{fill:#FFFFFF;}
	.st2{fill:url(#SVGID_1_);}
</style>
<g id="layer1">
	<g id="g12">
		<g id="g1">
			<g id="g2">
				<rect id="rect2-9" class="st0" width="366" height="361.7"/>
				<g>
					<path class="st1" d="M130.2,305.9c0.6-0.5,1.6-0.5,2.2,0l12.5,12.7c0.6,0.5,0.6,1.4,0,1.9c-9.6,10-23.3,16.1-38.5,16.1
						c-30.1,0-54.9-22.1-54.9-56.8s22.8-56.8,54.9-56.8c15.2,0,28.9,6.2,38.5,16.2c0.6,0.4,0.6,1.4,0,1.9l-12.5,12.6
						c-0.6,0.4-1.6,0.4-2.2,0c-6.2-6.3-14.6-10.2-23.9-10.2c-20.9,0-33.7,15.4-33.7,36.3c0,22.4,15.1,36.3,33.7,36.3
						C115.6,316.1,124,312.1,130.2,305.9L130.2,305.9z"/>
					<path class="st1" d="M236.6,257.2c0,32.9-36.9,32.9-36.9,32.9h-16.2v43.7c0,0.6-0.6,1.3-1.6,1.3h-17.7c-1,0-1.6-0.6-1.6-1.3
						v-62.9c0-0.6,0.6-1.3,1.6-1.3h14.4c-5.5-8.4-10.7-17.2-16-25.6v-18.1c0-0.6,0.6-1.3,1.6-1.3h35.4
						C199.7,224.5,236.6,224.5,236.6,257.2L236.6,257.2z M186.1,245.1l15,24.3c5.6,0,14.8-3.1,14.8-12.1c0-12.1-12.7-12.1-16.2-12.1
						L186.1,245.1L186.1,245.1L186.1,245.1z"/>
					<path class="st1" d="M328.6,305.9c0.6-0.5,1.6-0.5,2.2,0l12.5,12.7c0.6,0.5,0.6,1.4,0,1.9c-9.6,10-23.3,16.1-38.5,16.1
						c-30.1,0-54.9-22.1-54.9-56.8s22.8-56.8,54.9-56.8c15.2,0,28.9,6.2,38.5,16.2c0.6,0.4,0.6,1.4,0,1.9l-12.5,12.6
						c-0.6,0.4-1.6,0.4-2.2,0c-6.2-6.3-14.6-10.2-24-10.2c-21,0-33.7,15.4-33.7,36.3c0,22.4,15.1,36.3,33.7,36.3
						C313.9,316.1,322.3,312.1,328.6,305.9L328.6,305.9z"/>
				</g>
			</g>
		</g>
		<linearGradient id="SVGID_1_" gradientUnits="userSpaceOnUse" x1="278.94" y1="278.9" x2="512.04" y2="512">
			<stop  offset="0" style="stop-color:#8C52FF"/>
			<stop  offset="2.220029e-02" style="stop-color:#8957FD"/>
			<stop  offset="0.2216" style="stop-color:#6E7CEE"/>
			<stop  offset="0.4211" style="stop-color:#5999E2"/>
			<stop  offset="0.6184" style="stop-color:#4AADDA"/>
			<stop  offset="0.8126" style="stop-color:#41BAD5"/>
			<stop  offset="1" style="stop-color:#3EBED3"/>
		</linearGradient>
		<polygon class="st2" points="474,147 466,147 416,147 416,194 466,194 466,466 194,466 194,410.8 147,410.8 147,466 147,468.3 
			147,512 466,512 512,512 512,512 512,147 		"/>
	</g>
</g>
</svg>
