<?xml version="1.0" encoding="utf-8"?>
<!-- Generator: Adobe Illustrator 27.8.1, SVG Export Plug-In . SVG Version: 6.00 Build 0)  -->
<svg version="1.1"
	 id="svg1" xmlns:sodipodi="http://sodipodi.sourceforge.net/DTD/sodipodi-0.dtd" xmlns:inkscape="http://www.inkscape.org/namespaces/inkscape" xmlns:svg="http://www.w3.org/2000/svg"
	 xmlns="http://www.w3.org/2000/svg" xmlns:xlink="http://www.w3.org/1999/xlink" x="0px" y="0px" viewBox="0 0 512 512"
	 style="enable-background:new 0 0 512 512;" xml:space="preserve">
<style type="text/css">
	.st0{fill:#8C52FF;}
	.st1{enable-background:new    ;}
	.st2{fill:#FFFFFF;}
</style>
<sodipodi:namedview  bordercolor="#000000" borderopacity="0.25" id="namedview1" inkscape:current-layer="g2" inkscape:cx="155.60692" inkscape:cy="254.88986" inkscape:deskcolor="#d1d1d1" inkscape:document-units="mm" inkscape:pagecheckerboard="true" inkscape:pageopacity="0.0" inkscape:showpageshadow="2" inkscape:window-height="997" inkscape:window-maximized="0" inkscape:window-width="1632" inkscape:window-x="52" inkscape:window-y="25" inkscape:zoom="1.0475113" pagecolor="#ffffff" shape-rendering="auto">
	</sodipodi:namedview>
<g id="layer1" inkscape:groupmode="layer" inkscape:label="惧 1">
	<g id="g12">
		<g id="g1" transform="matrix(0.88383597,0,0,0.89749197,-5.2667378,-41.141309)">
			<g id="g2" transform="translate(-21.48358,-0.96195135)">
				<rect id="rect2-9" x="27.4" y="46.8" inkscape:label="rect2-9" class="st0" width="414.1" height="403">
				</rect>
				<g class="st1">
					<path class="st2" d="M174.7,387.6c0.7-0.5,1.8-0.5,2.5,0l14.1,14.2c0.7,0.5,0.7,1.6,0,2.1c-10.9,11.1-26.4,17.9-43.6,17.9
						c-34.1,0-62.1-24.6-62.1-63.3c0-37.1,25.8-63.3,62.1-63.3c17.2,0,32.7,6.9,43.6,18.1c0.7,0.5,0.7,1.6,0,2.1l-14.1,14.1
						c-0.7,0.5-1.8,0.5-2.5,0c-7-7-16.5-11.4-27.1-11.4c-23.7,0-38.1,17.1-38.1,40.4c0,25,17.1,40.4,38.1,40.4
						C158.2,399,167.7,394.6,174.7,387.6z"/>
					<path class="st2" d="M295.1,333.4c0,36.6-41.7,36.6-41.7,36.6h-18.3v48.7c0,0.7-0.7,1.4-1.8,1.4h-20c-1.1,0-1.8-0.7-1.8-1.4
						v-70.1c0-0.7,0.7-1.4,1.8-1.4h16.3c-6.2-9.3-12.1-19.2-18.1-28.5v-20.2c0-0.7,0.7-1.4,1.8-1.4h40.1
						C253.4,297,295.1,297,295.1,333.4z M238,319.9L255,347c6.3,0,16.7-3.5,16.7-13.5c0-13.5-14.4-13.5-18.3-13.5H238z"/>
					<path class="st2" d="M399.2,387.6c0.7-0.5,1.8-0.5,2.5,0l14.1,14.2c0.7,0.5,0.7,1.6,0,2.1c-10.9,11.1-26.4,17.9-43.6,17.9
						c-34.1,0-62.1-24.6-62.1-63.3c0-37.1,25.8-63.3,62.1-63.3c17.2,0,32.7,6.9,43.6,18.1c0.7,0.5,0.7,1.6,0,2.1l-14.1,14.1
						c-0.7,0.5-1.8,0.5-2.5,0c-7-7-16.5-11.4-27.1-11.4c-23.7,0-38.1,17.1-38.1,40.4c0,25,17.1,40.4,38.1,40.4
						C382.6,399,392.1,394.6,399.2,387.6z"/>
				</g>
			</g>
		</g>
		<g id="g6">
			<rect id="rect4-4-2" x="147" y="410.8" class="st0" width="47" height="57.5"/>
			<rect id="rect4" x="147" y="466" class="st0" width="365" height="46"/>
			<rect id="rect4-7" x="466" y="147" class="st0" width="46" height="365"/>
			<rect id="rect4-4" x="416" y="147" class="st0" width="58" height="47"/>
		</g>
	</g>
</g>
</svg>
